Coordinates
version=1
nRows=19
nColumns=36
inDegrees=yes

Units are S.I. units (second, meters, Newtons, ...)
If the header above contains a line with 'inDegrees', this indicates whether rotational values are in degrees (yes) or radians (no).

endheader
time	pelvis_tilt	pelvis_list	pelvis_rotation	pelvis_tx	pelvis_ty	pelvis_tz	hip_flexion_r	hip_adduction_r	hip_rotation_r	knee_angle_r	knee_angle_r_beta	ankle_angle_r	subtalar_angle_r	mtp_angle_r	hip_flexion_l	hip_adduction_l	hip_rotation_l	knee_angle_l	knee_angle_l_beta	ankle_angle_l	subtalar_angle_l	mtp_angle_l	lumbar_extension	lumbar_bending	lumbar_rotation	arm_flex_r	arm_add_r	arm_rot_r	elbow_flex_r	pro_sup_r	arm_flex_l	arm_add_l	arm_rot_l	elbow_flex_l	pro_sup_l
      3.95000000	    -28.22016518	      2.32643950	     -4.55079213	      0.52346270	      0.72119249	     -0.00198665	     81.16439413	     -9.21811336	     -1.64622337	     79.87682074	      1.39411352	     31.13627009	     -4.51767299	     -7.49999987	     80.54723537	    -11.36605071	     -1.10433499	     80.10881446	      1.39816257	     30.95085934	     -7.78428383	     -7.49999987	    -18.93142100	     -2.63077352	     10.56424412	     72.53551717	     -8.23424441	     73.24158367	    120.83562231	     79.62293895	     68.31498564	      6.74571860	     67.81184394	    118.97150788	     98.72509703
      3.96666670	    -27.86122765	      2.24018389	     -4.67038059	      0.52276870	      0.72459545	     -0.00214500	     79.64661857	     -9.05643387	     -1.89053814	     78.26423997	      1.36596867	     30.62786141	     -4.36140169	     -7.49999987	     79.07270581	    -11.34223180	     -1.20813161	     78.59761966	      1.37178725	     30.60347662	     -7.59244863	     -7.49999987	    -18.73951428	     -2.55915324	     10.13516683	     72.61096447	     -7.98933984	     72.98316423	    121.34683930	     78.86627314	     69.21243455	      6.90213266	     66.74971232	    118.75916446	     97.75465042
      3.98333330	    -27.51357375	      2.16871423	     -4.75230947	      0.52290554	      0.73120157	     -0.00224728	     78.21385482	     -8.93539080	     -2.16751297	     76.74541043	      1.33946010	     30.14720406	     -4.17882192	     -7.49999987	     77.67582744	    -11.32248678	     -1.33872586	     77.09740834	      1.34560362	     30.17390157	     -7.45196485	     -7.49999987	    -18.21118103	     -2.43808135	     10.25854191	     71.90966352	     -7.70116309	     73.07071522	    121.09381648	     78.30077372	     69.16488946	      6.99951632	     66.45101171	    118.40140387	     97.12097186
      4.00000000	    -27.16596781	      2.15595695	     -4.79763345	      0.52269800	      0.74015314	     -0.00236585	     76.69781161	     -8.87174715	     -2.43715284	     75.08560166	      1.31049097	     29.57709614	     -4.00180503	     -7.49999987	     76.19690310	    -11.25617160	     -1.52485829	     75.43932906	      1.31666468	     29.60840022	     -7.27036275	     -7.49999987	    -17.73851357	     -2.49996163	     10.32118013	     71.42750084	     -7.53758462	     73.56999154	    121.71044900	     78.53228964	     68.48413342	      7.04638901	     66.84653226	    118.79068097	     97.30704157
      4.01666670	    -26.64034509	      2.15541446	     -4.89592852	      0.53068115	      0.75673261	     -0.00414047	     74.60552575	     -8.83218330	     -2.72263140	     72.92682545	      1.27281322	     28.93524251	     -4.01318763	     -7.49999987	     74.01471956	    -11.07796525	     -1.75715392	     73.21203289	      1.27779103	     28.99606258	     -7.26159235	     -7.49999987	    -17.74171519	     -2.42526513	     10.31326211	     71.00262373	     -7.82715060	     75.06406299	    122.35433812	     78.38747757	     66.76099251	      7.21646176	     67.28001605	    118.68187599	     96.25056898
      4.03333330	    -25.95379347	      2.06947382	     -5.01175508	      0.53043419	      0.76325579	     -0.00398239	     72.42501716	     -8.74236710	     -3.05134229	     70.86900179	      1.23689742	     28.18623055	     -4.00477529	     -7.49999987	     71.83246765	    -10.96626579	     -1.94597753	     71.18058750	      1.24233562	     28.21198928	     -7.13052977	     -7.49999987	    -17.68350188	     -2.28956310	     10.36405161	     70.79469416	     -8.08724124	     75.43341743	    122.66547175	     79.23972494	     66.55215557	      7.56951525	     66.86468567	    118.11909544	     97.03777788
      4.05000000	    -25.58934522	      2.09549223	     -5.07473546	      0.53127145	      0.77312058	     -0.00373100	     70.56588524	     -8.72254497	     -3.38525328	     68.69790832	      1.19900469	     27.53594869	     -3.80965305	     -7.49999987	     69.93750455	    -10.81867965	     -2.25645920	     68.98219686	      1.20396646	     27.48207454	     -6.88882722	     -7.49999987	    -16.98494048	     -2.32732085	     10.09736095	     69.88772058	     -7.71176509	     73.65151411	    122.93362499	     89.28793645	     66.60196451	      7.78842060	     65.82091651	    118.65384102	    103.67374923
      4.06666670	    -25.16262498	      2.08504541	     -5.16435318	      0.53113782	      0.77947211	     -0.00347417	     68.88420680	     -8.66022333	     -3.69846805	     66.81072043	      1.16606705	     26.88452343	     -3.61089039	     -7.49999987	     68.24395952	    -10.74085455	     -2.52862540	     67.09971141	      1.17111089	     26.79835121	     -6.77769541	     -7.49999987	    -16.42649898	     -2.38187740	      9.59928117	     70.01279331	     -7.10383463	     72.80767439	    123.22492279	     88.52940999	     67.42379747	      8.19329909	     64.94376113	    118.85453048	    102.68438060
      4.08333330	    -24.82521575	      2.04192837	     -5.21574630	      0.53186662	      0.78841577	     -0.00391127	     67.29931752	     -8.62514057	     -4.08252590	     64.92218353	      1.13310586	     26.22551258	     -3.33296980	     -7.49999987	     66.68206254	    -10.66331396	     -2.71833500	     65.26520550	      1.13909272	     26.09999359	     -6.64638691	     -7.49999987	    -15.74611229	     -2.35756878	      9.25050110	     70.05874245	     -6.79434298	     72.23637796	    123.05845217	     88.58655260	     67.95694845	      8.05543239	     64.56199931	    118.44515783	    102.60475208
      4.10000000	    -24.00327010	      2.05132069	     -5.30303322	      0.53946920	      0.80445872	     -0.00572400	     64.82222181	     -8.66566501	     -4.50692609	     62.53699067	      1.09147639	     25.36019083	     -3.21599986	     -7.49999987	     64.11784660	    -10.37637361	     -2.89795428	     62.81854250	      1.09639040	     25.13768788	     -6.80161747	     -7.49999987	    -15.61474057	     -2.37487291	      8.94783126	     69.68951721	     -6.65573590	     71.78314936	    122.83368040	     90.44532324	     67.87788093	      7.87380331	     64.65638071	    118.19831420	    101.93824069
      4.11666670	    -23.18918373	      2.07242220	     -5.45351378	      0.54797059	      0.81802641	     -0.00714517	     62.14004093	     -8.68594062	     -4.94350201	     59.89667773	      1.04539424	     24.33759044	     -2.98544341	     -7.49999987	     61.23252047	    -10.05117660	     -3.10833749	     60.01902349	      1.04752957	     24.14557124	     -6.67638294	     -7.49999987	    -15.49731377	     -2.40939925	      8.23595986	     68.36882301	     -5.94836990	     71.87717229	    122.97571263	     90.54492884	     66.56911959	      7.39918563	     65.04767759	    118.39783732	    101.72417798
      4.13333330	    -22.29540818	      2.06925076	     -5.57568276	      0.54781744	      0.82466759	     -0.00687437	     59.66498406	     -8.63338030	     -5.20217723	     57.62887053	      1.00581353	     23.55108309	     -2.63852959	     -7.49999987	     58.55901699	     -9.77907661	     -3.35012117	     57.57920588	      1.00494672	     23.41401253	     -6.43020443	     -7.49999987	    -14.81180692	     -2.50903854	      7.84607910	     68.14437884	     -5.19320106	     70.92138701	    122.73358917	     90.75919352	     66.72783944	      7.67601379	     63.88837402	    118.10158518	    101.60043356
      4.15000000	    -21.91938196	      2.10068322	     -5.62098292	      0.54809580	      0.82775815	     -0.00709384	     58.15913197	     -8.61256583	     -5.42991463	     55.91164194	      0.97584224	     23.01994435	     -2.31925258	     -7.49999987	     56.99255482	     -9.62218328	     -3.57077533	     55.83473456	      0.97449996	     22.95365621	     -6.11116888	     -7.49999987	    -13.89472209	     -2.53364609	      7.56429239	     68.38376298	     -4.75267725	     70.35770354	    122.90664688	     89.21347745	     66.57384127	      8.12325222	     63.19413411	    118.21427887	     98.24284401
      4.16666670	    -21.21114829	      2.14208982	     -5.63783153	      0.55592614	      0.83536175	     -0.00864374	     56.24354755	     -8.69503566	     -5.73641509	     54.16337407	      0.94532921	     22.42312689	     -2.01012754	     -7.49999987	     54.91329947	     -9.35078483	     -3.80320731	     53.92816346	      0.94122401	     22.33864252	     -6.04798623	     -7.49999987	    -13.06866179	     -2.54164028	      7.30318776	     68.22765642	     -4.40448626	     69.96813101	    123.66256867	     89.43614792	     65.32474756	      8.15858615	     62.46090386	    118.05433242	     98.32185405
      4.18333330	    -20.48177104	      2.16843489	     -5.66888548	      0.55633839	      0.85027268	     -0.00890994	     54.19816141	     -8.76990457	     -6.10085604	     52.17790193	      0.91067619	     21.79574600	     -1.73304928	     -7.49999987	     52.79903031	     -9.04030855	     -3.99011503	     51.84684241	      0.90489811	     21.63793438	     -6.20338814	     -7.49999987	    -12.60066625	     -2.43757887	      7.34354216	     67.54975080	     -4.35372671	     69.02771827	    123.02621931	     88.43251547	     64.32098730	      7.99490974	     61.40666792	    117.80222022	     96.24554763
      4.20000000	    -19.32079766	      2.09393444	     -5.77421897	      0.56363457	      0.86615362	     -0.01017373	     51.19536766	     -8.76632679	     -6.64210674	     49.46931503	      0.86340243	     20.71550389	     -1.51961246	     -7.49999987	     49.70771408	     -8.67391616	     -4.10484631	     48.98157181	      0.85488970	     20.34958703	     -6.49100172	     -7.49999987	    -12.86414846	     -2.43346545	      7.30023152	     66.09366197	     -5.01716453	     67.89228908	    121.95781203	     94.72665629	     62.93628187	      7.92770769	     60.67373004	    116.87896452	    102.39553316
      4.21666670	    -18.48580501	      2.06653680	     -5.79371671	      0.56405428	      0.87226677	     -0.01033232	     48.79972474	     -8.78917165	     -7.10952866	     47.08809740	      0.82184234	     19.64581329	     -1.39409001	     -7.49999987	     47.12458557	     -8.36358347	     -4.37676785	     46.28524114	      0.80782985	     19.45097385	     -6.32542009	     -7.49999987	    -12.71229019	     -2.41311832	      7.02341184	     65.77622298	     -4.73831511	     67.02438824	    122.00857032	     94.86394200	     61.90274854	      8.05624076	     59.70068213	    116.58388968	    102.24746916
      4.23333330	    -17.87768912	      2.10371738	     -5.79523048	      0.57160892	      0.88192396	     -0.01139653	     46.43762799	     -8.85153811	     -7.71580025	     44.38148693	      0.77460307	     18.46370259	     -1.07158182	     -7.49999987	     44.55706901	     -7.93271422	     -4.56908184	     43.26147421	      0.75505516	     18.37809574	     -5.97864451	     -7.49999987	    -11.69198390	     -2.35347390	      6.89853409	     64.79446092	     -4.43610093	     66.75029278	    121.93773525	     94.90422730	     61.14586090	      8.42273017	     59.66046020	    116.72010746	    102.18912360
      4.25000000	    -16.89817968	      2.06565010	     -5.80666980	      0.57135073	      0.88585341	     -0.01173173	     43.90558933	     -8.77769541	     -8.07747883	     41.90138164	      0.73131707	     17.59988642	     -0.98255979	     -7.49999987	     41.84874425	     -7.51600954	     -4.61171469	     40.47790161	      0.70647266	     17.57007105	     -5.88768844	     -7.49999987	    -11.55065794	     -2.33698625	      6.55861456	     64.40415276	     -4.08240840	     66.39946415	    121.92072855	     95.00824231	     61.39569927	      9.05089764	     59.01549124	    116.35201467	    102.07905682
